<svg width="50" height="50" viewBox="0 0 50 50" fill="none" xmlns="http://www.w3.org/2000/svg">

    <path fill-rule="evenodd" clip-rule="evenodd" d="M0 24.3871V25.0321H4.78662C4.78662 21.2072 6.13121 16.6154 8.33404 13.5873C9.74037 11.6523 11.3545 9.87061 13.3495 8.52045C15.5313 7.04249 17.6212 6.03964 20.2863 5.36907C21.7092 5.00973 23.1065 4.94357 24.7341 4.76315C26.9264 4.51958 30.9496 5.61565 32.9733 6.44559C36.6261 7.9446 40.4416 11.2238 42.3463 14.6563C44.4091 18.3745 45.1514 20.9681 45.1514 25.4185C45.1514 31.4101 42.1837 36.3115 39.1677 39.3411C38.3321 40.1816 37.4151 40.8402 36.4665 41.5528C35.6263 42.1828 34.2456 42.9331 33.2473 43.3766C30.7855 44.4712 28.7619 44.9312 26.1329 45.0575C25.6059 45.0831 25.5352 45.1868 24.969 45.1868V49.9665C25.6707 49.9665 27.0333 49.8884 27.7621 49.7846C35.0602 48.7457 40.687 45.6334 45.0776 39.8163C45.9795 38.6195 46.6947 37.4497 47.3949 36.059C47.7337 35.3839 48.0152 34.7043 48.2953 33.9856C50.0991 29.3442 50.6457 23.0234 49.0813 18.2648C48.8012 17.4078 48.6401 16.859 48.3314 16.0441C48.0453 15.2923 47.7442 14.5706 47.3949 13.8775C46.7113 12.5183 45.3908 10.3623 44.4046 9.24214C39.886 4.11062 34.5964 0.855498 27.5377 0.115765C23.0116 -0.357844 18.3966 0.676579 14.6745 2.21919C13.2848 2.79504 12.014 3.64754 10.8154 4.43839C10.4134 4.70301 10.2794 4.80224 9.92256 5.09543C6.36158 8.01677 4.68724 9.65862 2.32781 14.4368C1.17896 16.7613 0 20.9185 0 24.3871H0Z" fill="#EF8331"/>
    <path fill-rule="evenodd" clip-rule="evenodd" d="M8.92749 25.2906V49.58C8.92749 49.8762 9.01783 49.9664 9.31596 49.9664C14.4655 49.9664 13.7216 50.3829 13.7141 48.287C13.7006 44.1989 13.559 25.7537 13.7683 24.3103C14.1222 21.8626 14.5814 19.8885 16.2106 17.964C17.5341 16.3988 19.103 15.0877 21.2772 14.3691C27.0802 12.4506 33.0759 15.1584 35.3947 20.6929C37.7436 26.2965 35.1959 32.712 29.3267 35.3251C24.2118 37.6015 24.9692 33.339 24.9692 41.0521C28.1101 41.0521 31.3714 39.971 33.9492 38.2615L35.61 36.9504C35.881 36.6979 35.9292 36.7129 36.1882 36.4934C36.399 36.316 36.4652 36.2182 36.6248 36.0258L39.1288 32.5827C40.5396 30.0869 41.0124 27.6406 41.0124 24.387C41.0124 21.8626 40.1241 19.1728 39.1755 17.4347C38.3022 15.835 37.9483 15.4802 36.8597 14.1916C36.8432 14.1706 36.8176 14.142 36.801 14.121L36.6248 13.909C34.6283 11.5139 29.8432 9.14281 26.5216 9.01351C25.7717 8.98344 25.3773 8.80903 24.6018 8.89924C20.6659 9.36082 19.0292 9.69611 15.6263 11.9559C14.7877 12.5122 14.1899 13.1256 13.4883 13.8248C10.9737 16.3251 8.92749 20.305 8.92749 25.2906V25.2906Z" fill="#EF8331"/>
</svg>
