<svg width="600" height="153" viewBox="0 0 600 153" fill="none" xmlns="http://www.w3.org/2000/svg">
<path d="M76.4793 0C34.2908 0 0 34.2908 0 76.4794H14.3449C14.3449 42.229 42.2289 14.3449 76.4793 14.3449C110.73 14.3449 138.614 42.229 138.614 76.4794C138.614 110.73 110.73 138.614 76.4793 138.614V152.959C118.628 152.959 152.959 118.668 152.959 76.4794C152.959 34.2908 118.628 0 76.4793 0Z" fill="#EC792B"/>
<path d="M111.138 76.4776C111.138 95.6176 95.5843 111.171 76.4443 111.171V125.516C103.482 125.516 125.483 103.515 125.483 76.4776C125.483 49.4397 103.482 27.4387 76.4443 27.4387C49.4064 27.4387 27.4458 49.4397 27.4458 76.4776V152.957H41.7909V76.4776C41.7909 57.3376 57.3446 41.7838 76.4846 41.7838C95.6246 41.7838 111.178 57.3376 111.178 76.4776H111.138Z" fill="#EC792B"/>
<path d="M204.013 44.4045H230.527C246 44.4045 256.355 55.0826 256.355 69.3469C256.355 83.6112 246 94.2893 230.527 94.2893H217.39V122.375H204.013V44.4045ZM242.776 69.3469C242.776 62.0134 237.981 57.0974 228.874 57.0974H217.39V81.5964H228.874C238.021 81.5964 242.776 76.6808 242.776 69.3469Z" fill="#003D67"/>
<path d="M300.072 69.9111L295.398 81.9189C295.398 81.9189 292.94 80.7098 289.072 80.7098C280.932 80.7098 277.265 87.842 277.265 87.842V122.375H263.888V69.5887H276.58V77.2849C276.58 77.2849 281.134 68.2589 290.966 68.2589C295.761 68.2589 300.113 69.9111 300.113 69.9111H300.072Z" fill="#003D67"/>
<path d="M357.093 95.9815C357.093 111.455 344.602 123.705 328.927 123.705C313.252 123.705 300.761 111.455 300.761 95.9815C300.761 80.5085 313.252 68.2589 328.927 68.2589C344.602 68.2589 357.093 80.3874 357.093 95.9815ZM343.514 95.9815C343.514 87.7213 337.953 80.7098 328.927 80.7098C319.901 80.7098 314.341 87.7213 314.341 95.9815C314.341 104.242 319.901 111.253 328.927 111.253C337.953 111.253 343.514 104.242 343.514 95.9815Z" fill="#003D67"/>
<path d="M417.257 122.375H404.887V115.484C404.887 115.484 400.332 123.705 388.969 123.705C375.269 123.705 363.221 112.221 363.221 95.9822C363.221 79.7433 375.229 68.2592 388.969 68.2592C399.004 68.2592 403.877 75.1497 403.877 75.1497V38.1994H417.257V122.375ZM403.877 88.0842C403.877 88.0842 400.089 80.7507 391.306 80.7507C382.522 80.7507 376.841 87.3185 376.841 96.0221C376.841 104.726 382.281 111.294 391.306 111.294C400.332 111.294 403.877 103.96 403.877 103.96V88.1649V88.0842Z" fill="#003D67"/>
<path d="M438.437 43.7578C443.352 43.7578 447.222 47.6665 447.222 52.5421C447.222 57.4178 443.313 61.326 438.437 61.326C433.564 61.326 429.655 57.4178 429.655 52.5421C429.655 47.6665 433.564 43.7578 438.437 43.7578ZM431.751 69.5866H445.127V122.373H431.751V69.5866Z" fill="#003D67"/>
<path d="M480.947 123.705C467.245 123.705 455.197 112.22 455.197 95.9815C455.197 79.7427 467.206 68.2589 480.947 68.2589C491.988 68.2589 496.861 76.5192 496.861 76.5192V69.6291H509.234V122.858C509.234 141.233 495.654 149.372 480.825 149.372C465.996 149.372 455.761 139.339 455.761 139.339L463.336 129.104C463.336 129.104 470.669 136.881 480.825 136.881C490.978 136.881 495.854 131.199 495.854 123.301V116.935C494.08 119.151 489.285 123.745 480.947 123.745V123.705ZM495.854 88.084C495.854 88.084 492.066 80.7501 483.281 80.7501C474.499 80.7501 468.816 87.3183 468.816 96.0219C468.816 104.725 474.257 111.294 483.281 111.294C492.309 111.294 495.854 103.96 495.854 103.96V88.1643V88.084Z" fill="#003D67"/>
<path d="M572.961 69.5887V122.375H560.588V115.484C560.588 115.484 556.036 123.705 544.674 123.705C530.973 123.705 518.924 112.22 518.924 95.9815C518.924 79.7427 530.933 68.2589 544.674 68.2589C555.715 68.2589 560.588 76.5192 560.588 76.5192V69.6291H572.961V69.5887ZM559.581 88.084C559.581 88.084 555.672 80.7501 547.09 80.7501C538.066 80.7501 532.504 87.3183 532.504 96.0219C532.504 104.725 538.066 111.294 547.09 111.294C556.119 111.294 559.581 103.96 559.581 103.96V88.1643V88.084Z" fill="#003D67"/>
<path d="M586.624 38.1994H600V122.375H586.624V38.1994Z" fill="#003D67"/>
</svg>
